<svg version="1.1" id="Layer_1" xmlns="http://www.w3.org/2000/svg" xmlns:xlink="http://www.w3.org/1999/xlink" x="0px" y="0px"
	 width="100%" viewBox="0 0 1024 1024" enable-background="new 0 0 1024 1024" xml:space="preserve">
<path fill="#132236" opacity="1.000000" stroke="none" 
	d="
M646.000000,1025.000000 
	C430.666656,1025.000000 215.833328,1025.000000 1.000000,1025.000000 
	C1.000000,683.666687 1.000000,342.333344 1.000000,1.000000 
	C342.333344,1.000000 683.666687,1.000000 1025.000000,1.000000 
	C1025.000000,342.333344 1025.000000,683.666687 1025.000000,1025.000000 
	C898.833313,1025.000000 772.666687,1025.000000 646.000000,1025.000000 
M745.937317,438.041718 
	C753.210876,438.041718 760.484436,438.041718 767.783752,438.041718 
	C767.316528,430.937408 763.579102,427.765106 755.462097,427.686584 
	C741.326416,427.549835 727.188416,427.635956 713.051392,427.651886 
	C707.564087,427.658081 702.061829,427.487030 696.593567,427.830414 
	C690.139343,428.235718 686.669006,432.075409 687.136536,438.164246 
	C692.393372,438.164246 697.692017,438.164246 702.989441,438.895813 
	C701.655640,440.856720 700.321899,442.817627 698.117737,444.920959 
	C695.477661,445.331268 691.495056,443.450867 691.174255,448.138550 
	C690.650452,455.792023 690.822876,463.448822 694.439941,470.527344 
	C696.555115,474.666656 697.859680,475.143005 702.708252,473.817169 
	C699.193604,466.773590 698.307678,459.610077 701.285034,452.138092 
	C703.798523,458.125916 705.987671,463.889313 708.619446,469.442902 
	C710.858276,474.167145 714.850769,475.319916 719.860962,473.815857 
	C715.295593,467.092041 713.409973,460.101105 715.758301,451.027557 
	C721.283813,462.582336 722.391602,477.440826 740.499268,474.375427 
	C735.062195,467.992584 731.161011,461.448700 733.609558,452.330170 
	C746.976685,474.048126 749.655518,476.302460 759.358398,474.046509 
	C753.185425,468.004242 748.401855,461.402405 748.735229,451.506592 
	C753.755371,457.768890 757.805542,463.573486 762.632507,468.637756 
	C767.785095,474.043701 774.423035,476.058319 780.349670,474.745361 
	C776.829285,470.661621 772.468384,466.334290 769.003601,461.380249 
	C765.462891,456.317505 762.801575,450.639679 759.516113,444.806458 
	C756.325439,444.806458 752.667480,444.806458 748.815674,444.156921 
	C747.547119,442.163757 746.278625,440.170563 745.937317,438.041718 
M284.030487,493.960449 
	C271.019989,493.964233 258.009491,493.968018 244.070251,493.831177 
	C236.040558,493.870331 228.010864,493.909485 219.477020,493.945099 
	C219.314102,494.626312 219.151199,495.307526 218.847198,496.918945 
	C218.802170,503.249603 218.965759,509.591156 218.635117,515.906860 
	C218.431686,519.792358 220.074478,520.780640 223.568146,520.748901 
	C254.049988,520.471985 284.532623,520.281982 315.646973,520.225525 
	C317.099335,520.180176 318.551666,520.134827 320.654205,520.203674 
	C321.092926,520.184082 321.531647,520.164429 322.449982,520.378052 
	C323.300262,520.269409 324.150543,520.160706 325.936218,520.114319 
	C395.518677,520.325439 465.101074,520.674377 534.683594,520.700500 
	C583.123352,520.718689 631.563232,520.293884 680.612122,520.373230 
	C682.415649,520.284302 684.219177,520.195374 686.953369,520.202271 
	C707.275635,520.237183 727.597900,520.281372 747.920166,520.303894 
	C761.912537,520.319397 775.905945,520.381409 789.895691,520.189880 
	C791.360901,520.169800 794.025452,518.625366 794.065979,517.697937 
	C794.404236,509.945007 794.258118,502.170929 794.258118,494.182251 
	C792.091736,494.046448 790.631470,493.876251 789.171143,493.874603 
	C724.206787,493.802002 659.242493,493.740845 594.278137,493.705841 
	C592.804993,493.705048 591.331787,494.019928 588.946716,494.048523 
	C574.953003,493.944458 560.959290,493.755280 546.965576,493.752319 
	C504.972290,493.743439 462.978973,493.807281 420.250183,493.512543 
	C385.799957,493.633423 351.349670,493.745697 316.899506,493.880280 
	C306.249451,493.921906 295.599640,494.024323 284.030487,493.960449 
M465.500000,545.001160 
	C455.743134,545.001160 445.986267,545.001160 436.305511,545.001160 
	C436.305511,593.680969 436.305511,641.742310 436.305511,689.875610 
	C447.342133,689.875610 458.065155,689.875610 469.273376,689.875610 
	C469.273376,674.344543 469.273376,659.128784 469.273376,643.714539 
	C476.590698,643.714539 483.424255,643.868591 490.245361,643.643921 
	C493.270233,643.544312 495.000916,644.683838 496.816345,647.017273 
	C507.239258,660.414124 517.835022,673.677246 528.464905,686.911255 
	C529.536011,688.244690 531.208862,689.975342 532.634094,690.005066 
	C544.551636,690.253174 556.476685,690.145996 568.399414,690.145996 
	C568.702209,689.747375 569.005005,689.348816 569.307800,688.950195 
	C556.630432,673.106140 543.953003,657.262146 531.040771,641.124573 
	C532.295349,640.657043 532.886169,640.371582 533.509338,640.214111 
	C553.500793,635.161377 572.585999,614.068420 566.246277,584.255432 
	C562.098938,564.752441 543.548096,547.964111 521.412598,546.080505 
	C503.209625,544.531372 484.811584,545.274292 465.500000,545.001160 
M465.352814,277.870941 
	C425.093903,309.611359 384.851410,341.372711 344.539795,373.046051 
	C341.801117,375.197845 340.641113,377.476135 340.655243,381.013519 
	C340.767365,409.173584 340.681732,437.334412 340.677002,465.495026 
	C340.676758,466.921814 340.862030,468.348602 340.958008,469.733307 
	C351.476624,469.733307 361.591370,469.733307 372.189026,469.733307 
	C372.189026,467.744141 372.186157,465.961975 372.189453,464.179840 
	C372.230713,441.851196 372.197937,419.521790 372.437866,397.195251 
	C372.460358,395.100311 373.641541,392.326965 375.232422,391.041504 
	C408.772217,363.942230 442.437897,336.998657 476.104340,310.056335 
	C485.707886,302.370850 495.391022,294.784821 505.024384,287.163696 
	C523.053284,301.009094 540.756836,314.534912 558.335815,328.220795 
	C559.954346,329.480835 560.778320,331.761444 561.996399,333.606323 
	C570.964905,333.606323 580.201416,333.606323 589.651184,333.606323 
	C589.651184,327.436615 589.893433,321.608185 589.517090,315.819946 
	C589.388855,313.848572 588.194885,311.339905 586.656982,310.157440 
	C561.853516,291.086304 536.958252,272.133301 511.980713,253.290253 
	C505.098663,248.098450 503.822235,248.164276 496.686371,253.552460 
	C486.325989,261.375427 476.155945,269.450500 465.352814,277.870941 
M608.650635,577.877258 
	C618.621826,590.756836 628.593018,603.636353 638.739014,616.741699 
	C619.048340,640.953064 599.386719,665.128784 578.964966,690.239136 
	C589.574280,690.239136 598.739258,689.694946 607.806824,690.401184 
	C615.932068,691.033997 621.216248,688.359131 626.190002,681.816589 
	C636.432556,668.343445 647.651794,655.612854 658.754089,642.233276 
	C659.788208,643.502869 660.501404,644.361450 661.196472,645.234497 
	C672.290100,659.169250 683.354858,673.127258 694.516357,687.007446 
	C695.580078,688.330139 697.227722,690.063232 698.634827,690.091675 
	C710.722229,690.336304 722.816772,690.232178 736.585815,690.232178 
	C716.809692,664.722168 697.927185,640.364868 678.894775,615.814087 
	C697.297974,592.521729 715.788452,569.118958 734.421692,545.535461 
	C733.358215,545.081421 733.078003,544.858643 732.796082,544.856506 
	C725.132690,544.797791 717.364380,545.543945 709.830627,544.535095 
	C698.973572,543.081299 692.056030,547.164795 685.840332,555.900757 
	C677.590698,567.495361 667.945129,578.096741 658.689148,589.381226 
	C649.786560,578.213867 640.727722,567.928284 632.944092,556.754395 
	C626.417175,547.384644 618.844666,542.651550 607.239197,544.623535 
	C602.704895,545.393982 597.930176,544.749695 593.264954,544.749695 
	C590.233887,544.749695 587.202881,544.749695 583.217407,544.749695 
	C592.029541,556.248779 600.107788,566.790161 608.650635,577.877258 
M369.425964,656.718384 
	C366.137268,661.888428 361.140930,664.460510 355.312347,664.955322 
	C344.724030,665.854248 334.378784,664.832703 324.871094,659.409241 
	C319.261047,656.209106 313.582397,653.129272 308.118652,650.097412 
	C302.243683,657.626953 296.542816,664.933411 290.713837,672.404053 
	C292.230591,673.651062 293.575317,674.865845 295.027924,675.934021 
	C309.067139,686.256653 324.857544,691.730225 342.202179,692.753113 
	C356.183380,693.577759 369.885834,692.270691 382.283325,685.177734 
	C398.692749,675.789307 407.680786,661.812927 405.823120,642.455505 
	C404.113068,624.636169 392.241516,615.059937 376.594635,609.368103 
	C369.597931,606.822876 362.196655,605.395935 355.181213,602.894348 
	C348.058105,600.354370 340.511230,598.110779 334.358551,593.950134 
	C325.075684,587.672791 327.453278,573.781189 338.123749,570.181335 
	C342.688232,568.641479 347.919525,568.408447 352.801208,568.626343 
	C361.386322,569.009583 368.624908,573.387390 375.476227,578.159607 
	C378.229980,580.077698 380.308807,579.865173 382.359711,577.569702 
	C387.887726,571.382568 393.353973,565.140137 399.028931,558.710938 
	C397.820923,557.644531 396.755127,556.643738 395.627808,555.717834 
	C385.152405,547.113831 373.004944,542.547424 359.628174,541.327148 
	C343.992584,539.900879 328.553711,540.386841 314.971100,549.687073 
	C300.875671,559.338379 293.323395,572.585938 295.180298,589.996033 
	C296.857086,605.717529 306.014282,616.181824 320.357788,621.951233 
	C328.344879,625.163940 336.783295,627.236450 344.930420,630.075134 
	C351.643219,632.414124 358.607391,634.436096 364.770599,637.845215 
	C372.403534,642.067261 373.555298,648.015686 369.425964,656.718384 
M467.755157,397.253693 
	C478.745117,386.571503 489.947571,376.095215 500.606689,365.092499 
	C504.206787,361.376343 506.055145,361.456024 509.622650,364.952789 
	C534.371887,389.211548 559.316162,413.271606 584.236755,437.355164 
	C589.385559,442.331024 594.487000,447.392334 599.992981,451.952148 
	C605.639221,456.628143 610.806580,455.936707 615.837219,450.601746 
	C621.262146,444.848633 621.522827,438.198608 615.959839,432.458588 
	C608.312317,424.567749 600.174500,417.149841 592.593018,409.199005 
	C590.765564,407.282501 589.426758,404.092072 589.353821,401.446381 
	C588.982178,387.956421 589.106689,374.453003 589.035034,360.954376 
	C589.027344,359.514160 588.872192,358.074738 588.787659,356.671753 
	C580.041260,356.671753 571.657898,356.671753 562.785950,356.671753 
	C562.785950,364.291443 562.785950,371.488037 562.785950,379.281403 
	C561.599487,378.207520 560.973022,377.686005 560.397705,377.113068 
	C545.531555,362.308197 530.676453,347.492126 515.806458,332.691132 
	C508.074585,324.995056 503.559875,324.919373 496.436249,332.008606 
	C467.873230,360.433716 439.249329,388.797638 410.682251,417.218689 
	C405.607849,422.267181 400.420441,427.244476 395.787628,432.682678 
	C391.101166,438.183838 392.368164,446.329590 398.083008,451.509888 
	C403.350403,456.284576 406.679230,456.053680 413.234711,450.443542 
	C414.120026,449.685913 415.001617,448.919464 415.833740,448.104828 
	C432.976166,431.322510 450.111176,414.532562 467.755157,397.253693 
M610.851562,335.708282 
	C610.845154,345.706390 610.669556,355.709625 610.970642,365.698456 
	C611.033203,367.773285 612.346619,370.446228 613.966187,371.729767 
	C621.528259,377.722473 629.295654,383.473572 637.204712,389.003448 
	C641.079468,391.712585 642.874329,394.719635 642.795105,399.673340 
	C642.507629,417.664825 642.708069,435.664093 642.722107,453.660431 
	C642.726257,458.965729 642.722717,464.270996 642.722717,469.581543 
	C653.469910,469.581543 663.854980,469.581543 674.344299,469.581543 
	C674.462158,468.604645 674.606140,467.960022 674.608276,467.314941 
	C674.703674,437.987640 674.837036,408.660187 674.744629,379.333405 
	C674.739136,377.591400 673.326416,375.302490 671.865173,374.201599 
	C656.849670,362.888641 641.697876,351.756256 626.563477,340.601593 
	C621.585693,336.932739 616.547913,333.345398 610.850647,329.223846 
	C610.850647,331.802338 610.850647,333.287689 610.851562,335.708282 
M656.702209,229.702866 
	C656.146606,227.495712 655.590942,225.288559 655.035339,223.081406 
	C649.418945,255.353577 629.232422,270.735809 598.051819,274.822449 
	C612.002991,277.900391 625.663452,281.081696 636.368347,291.154327 
	C647.308533,301.448364 650.907837,315.212494 654.624390,329.293152 
	C659.334351,297.953339 676.711975,279.635345 708.658875,275.247467 
	C681.952759,270.935760 662.779541,258.290375 656.702209,229.702866 
M320.718231,344.131195 
	C328.311768,338.070282 337.424286,336.013306 346.906067,334.241547 
	C320.807587,330.987030 306.984863,315.460022 302.808044,290.120972 
	C299.313385,316.985260 283.361328,330.329071 257.919128,334.464783 
	C282.524200,337.877960 297.946411,350.787292 302.304962,376.355103 
	C304.627563,369.932159 305.949097,363.986603 308.833893,358.933472 
	C311.820587,353.701813 316.323730,349.335846 320.718231,344.131195 
M752.244263,760.407837 
	C752.244263,755.438782 752.244263,750.469666 752.244263,745.525696 
	C744.805298,745.525696 737.725830,745.525696 730.461304,745.525696 
	C730.461304,748.932739 730.461304,751.977112 730.461304,755.473389 
	C734.137817,755.311523 737.483154,755.164246 740.789368,755.018677 
	C741.500854,763.160706 741.506165,763.190002 734.027405,764.552795 
	C732.403076,764.848816 730.715698,765.040894 729.073792,764.957520 
	C720.586792,764.526245 715.189453,759.102539 714.802979,750.752197 
	C714.290771,739.683289 718.633057,732.620361 727.679565,732.361267 
	C733.311707,732.199890 739.019348,734.671753 745.190063,736.074829 
	C746.772949,734.239929 749.245972,731.373230 751.717224,728.508545 
	C740.154602,718.500061 722.944336,717.266968 712.708435,725.729370 
	C701.985718,734.594360 699.018311,751.693237 706.093933,763.843262 
	C713.019531,775.735718 727.848633,779.897522 743.031494,774.209717 
	C752.209473,770.771484 752.209473,770.771484 752.244263,760.407837 
M728.730286,387.925293 
	C732.763306,367.439362 744.411255,354.398865 765.775818,350.908997 
	C742.185486,347.912628 731.626404,333.005157 727.473694,311.481445 
	C724.006226,334.312256 711.286743,347.796143 688.212463,351.237244 
	C712.079956,354.354004 723.507812,369.095825 727.300415,392.361511 
	C728.028564,390.215027 728.294617,389.430878 728.730286,387.925293 
M677.780273,723.981018 
	C675.316772,718.473938 671.101562,723.240051 667.512512,721.409912 
	C667.512512,733.100159 667.512512,743.916199 667.512512,756.027466 
	C660.066772,745.749329 653.058899,736.696777 646.778503,727.164795 
	C643.223267,721.768738 639.081970,719.972351 633.078979,721.715820 
	C633.078979,739.611023 633.078979,757.480530 633.078979,775.229675 
	C636.559753,775.229675 639.656006,775.229675 643.151733,775.229675 
	C643.151733,764.031738 643.151733,753.179077 643.151733,741.321899 
	C650.398621,751.472839 657.387085,760.526001 663.516541,770.127502 
	C667.108948,775.754944 671.429138,776.761230 677.779907,775.171997 
	C677.779907,758.439514 677.779907,741.668518 677.780273,723.981018 
M525.858765,756.506592 
	C525.858765,751.645630 525.858765,746.784668 525.858765,740.621887 
	C533.286743,751.030457 540.250916,759.943848 546.230774,769.474854 
	C550.025940,775.523926 554.576172,776.728333 560.884949,774.950928 
	C560.884949,757.295532 560.884949,739.666504 560.884949,721.782959 
	C557.625366,721.782959 554.532288,721.782959 550.781494,721.782959 
	C550.781494,733.214905 550.781494,744.480469 550.781494,756.646973 
	C543.405090,746.201538 536.274597,736.945374 530.122864,727.078979 
	C526.410095,721.124268 521.872192,720.320251 515.803894,721.754883 
	C515.803894,739.520264 515.803894,757.257446 515.803894,775.147034 
	C519.257507,775.147034 522.348022,775.147034 525.859497,775.147034 
	C525.859497,769.091614 525.859497,763.297607 525.858765,756.506592 
M311.293121,448.846924 
	C312.926361,448.410461 314.559631,447.974030 317.712372,447.131531 
	C296.385284,444.079834 284.367004,432.683075 280.350647,412.487030 
	C276.951385,433.234009 264.412567,444.000275 244.486099,447.262695 
	C266.508179,450.928741 277.310242,464.447693 280.105164,485.637451 
	C284.343658,468.123383 291.572571,453.680634 311.293121,448.846924 
M456.995087,726.404785 
	C451.206085,742.551758 445.417084,758.698792 439.426178,775.408997 
	C442.527954,775.408997 444.843140,775.202942 447.105927,775.459412 
	C450.153168,775.804810 451.403595,774.508545 452.412506,771.701782 
	C455.738434,762.449036 455.871735,762.496948 465.701447,762.508606 
	C475.735229,762.520508 475.677124,762.543335 479.370941,771.942078 
	C479.892426,773.268982 481.185822,775.064148 482.325714,775.228455 
	C485.471100,775.681641 488.724518,775.385193 492.527130,775.385193 
	C486.235779,758.070190 480.030762,741.780029 474.463898,725.274719 
	C472.309387,718.886719 467.632202,721.906738 463.906891,721.139832 
	C460.156647,720.367920 457.883087,721.815674 456.995087,726.404785 
M288.651093,776.795715 
	C296.262329,776.405212 303.374512,774.708862 309.332520,768.861267 
	C307.397247,765.815979 305.492462,762.818665 303.609589,759.855835 
	C291.271851,766.511292 283.107452,766.309875 277.371796,759.473083 
	C272.794281,754.016724 272.434448,743.125427 277.329895,737.671509 
	C279.512482,735.239990 283.084045,732.569397 285.998047,732.599915 
	C291.502472,732.657532 296.987274,734.590271 303.152557,735.884888 
	C304.643768,733.949524 306.933838,730.977417 309.204834,728.030029 
	C298.968842,718.923401 284.632080,717.464783 273.975983,724.521118 
	C262.456543,732.149170 259.294220,743.758850 262.950256,757.936035 
	C266.101898,770.157166 275.665192,775.543701 288.651093,776.795715 
M414.414581,732.075256 
	C416.189423,732.075256 417.964264,732.075256 419.820984,732.075256 
	C419.820984,728.309448 419.820984,725.061523 419.820984,721.551392 
	C408.902161,721.551392 398.216949,721.551392 387.430420,721.551392 
	C387.430420,739.641418 387.430420,757.354980 387.430420,775.259766 
	C398.474426,775.259766 409.218750,775.259766 420.325775,775.259766 
	C420.325775,771.762085 420.325775,768.537292 420.325775,764.776855 
	C412.945190,764.776855 405.722473,764.776855 398.428101,764.776855 
	C398.428101,760.501648 398.428101,756.760193 398.428101,752.429504 
	C405.073822,752.429504 411.460724,752.429504 417.800598,752.429504 
	C417.800598,748.893372 417.800598,745.957336 417.800598,742.604614 
	C411.159698,742.604614 404.745087,742.604614 398.305084,742.604614 
	C398.305084,738.925049 398.305084,735.672058 398.305084,732.075745 
	C403.519623,732.075745 408.478455,732.075745 414.414581,732.075256 
M352.418579,764.567322 
	C349.317932,764.567322 346.217285,764.567322 342.580505,764.567322 
	C342.580505,749.923889 342.580505,735.845703 342.580505,721.672729 
	C338.774261,721.672729 335.534515,721.672729 332.127625,721.672729 
	C332.127625,739.594727 332.127625,757.220337 332.127625,774.901062 
	C342.312469,774.901062 352.368561,774.901062 362.441101,774.901062 
	C362.441101,771.414673 362.441101,768.293640 362.441101,764.565063 
	C359.297638,764.565063 356.342560,764.565063 352.418579,764.567322 
M591.246582,723.961609 
	C591.246582,740.931396 591.246582,757.901245 591.246582,775.154785 
	C594.869629,775.154785 598.296143,775.154785 601.896362,775.154785 
	C601.896362,757.234253 601.896362,739.491516 601.896362,720.504517 
	C598.016907,721.434326 594.638550,722.244019 591.246582,723.961609 
M368.483826,296.268158 
	C369.018158,298.133331 369.552521,299.998505 370.401703,302.962769 
	C373.595978,291.567627 378.458069,282.902008 391.092438,280.476074 
	C379.154327,277.541473 372.530121,270.604950 370.351898,259.025970 
	C368.140411,270.975800 360.374817,277.096252 349.434235,280.145874 
	C358.912476,282.022186 364.870422,287.161987 368.483826,296.268158 
M528.201965,426.257843 
	C528.201965,422.953339 528.201965,419.648834 528.201965,416.167267 
	C522.140076,416.167267 516.418640,416.167267 510.445526,416.167267 
	C510.445526,421.644928 510.445526,426.860474 510.445526,432.301880 
	C516.344238,432.301880 522.054871,432.301880 528.204773,432.301880 
	C528.204773,430.404694 528.204773,428.784515 528.201965,426.257843 
M510.303497,445.752686 
	C510.303497,449.704895 510.303497,453.657074 510.303497,457.852905 
	C516.500122,457.852905 522.221741,457.852905 528.164429,457.852905 
	C528.164429,452.528503 528.164429,447.425201 528.164429,441.953461 
	C522.841064,441.953461 517.712036,441.828888 512.601746,442.081329 
	C511.790588,442.121399 511.063324,443.859100 510.303497,445.752686 
M491.511719,415.995300 
	C489.062347,415.995300 486.612946,415.995300 484.067688,415.995300 
	C484.067688,421.695770 484.067688,426.907806 484.067688,432.172302 
	C489.776917,432.172302 495.176239,432.172302 500.670197,432.172302 
	C500.670197,426.690186 500.670197,421.470825 500.670197,415.994690 
	C497.755798,415.994690 495.120850,415.994690 491.511719,415.995300 
M493.446533,457.999725 
	C495.860168,457.999725 498.273773,457.999725 500.645325,457.999725 
	C500.645325,452.266663 500.645325,447.213501 500.645325,442.144348 
	C494.942932,442.144348 489.533569,442.144348 483.930725,442.144348 
	C483.930725,447.426422 483.930725,452.475098 483.930725,457.998993 
	C486.912476,457.998993 489.693848,457.998993 493.446533,457.999725 
z"/>
<path fill="#FDFDFE" opacity="1.000000" stroke="none" 
	d="
M466.000000,545.001282 
	C484.811584,545.274292 503.209625,544.531372 521.412598,546.080505 
	C543.548096,547.964111 562.098938,564.752441 566.246277,584.255432 
	C572.585999,614.068420 553.500793,635.161377 533.509338,640.214111 
	C532.886169,640.371582 532.295349,640.657043 531.040771,641.124573 
	C543.953003,657.262146 556.630432,673.106140 569.307800,688.950195 
	C569.005005,689.348816 568.702209,689.747375 568.399414,690.145996 
	C556.476685,690.145996 544.551636,690.253174 532.634094,690.005066 
	C531.208862,689.975342 529.536011,688.244690 528.464905,686.911255 
	C517.835022,673.677246 507.239258,660.414124 496.816345,647.017273 
	C495.000916,644.683838 493.270233,643.544312 490.245361,643.643921 
	C483.424255,643.868591 476.590698,643.714539 469.273376,643.714539 
	C469.273376,659.128784 469.273376,674.344543 469.273376,689.875610 
	C458.065155,689.875610 447.342133,689.875610 436.305511,689.875610 
	C436.305511,641.742310 436.305511,593.680969 436.305511,545.001160 
	C445.986267,545.001160 455.743134,545.001160 466.000000,545.001282 
M469.130432,591.501465 
	C469.130432,599.574646 469.130432,607.647766 469.130432,615.989746 
	C485.103455,615.989746 500.390015,616.227356 515.662781,615.872559 
	C521.750610,615.731018 527.393433,613.375244 531.040588,607.983337 
	C535.575500,601.279114 536.116516,594.078674 532.837219,586.737915 
	C529.260315,578.730835 522.369263,575.419800 514.129822,574.770935 
	C508.675110,574.341309 503.163757,574.613098 497.677704,574.604248 
	C488.264313,574.589111 478.850861,574.600037 469.130371,574.600037 
	C469.130371,580.253174 469.130371,585.377991 469.130432,591.501465 
z"/>
<path fill="#FDFDFE" opacity="1.000000" stroke="none" 
	d="
M465.628784,277.644470 
	C476.155945,269.450500 486.325989,261.375427 496.686371,253.552460 
	C503.822235,248.164276 505.098663,248.098450 511.980713,253.290253 
	C536.958252,272.133301 561.853516,291.086304 586.656982,310.157440 
	C588.194885,311.339905 589.388855,313.848572 589.517090,315.819946 
	C589.893433,321.608185 589.651184,327.436615 589.651184,333.606323 
	C580.201416,333.606323 570.964905,333.606323 561.996399,333.606323 
	C560.778320,331.761444 559.954346,329.480835 558.335815,328.220795 
	C540.756836,314.534912 523.053284,301.009094 505.024384,287.163696 
	C495.391022,294.784821 485.707886,302.370850 476.104340,310.056335 
	C442.437897,336.998657 408.772217,363.942230 375.232422,391.041504 
	C373.641541,392.326965 372.460358,395.100311 372.437866,397.195251 
	C372.197937,419.521790 372.230713,441.851196 372.189453,464.179840 
	C372.186157,465.961975 372.189026,467.744141 372.189026,469.733307 
	C361.591370,469.733307 351.476624,469.733307 340.958008,469.733307 
	C340.862030,468.348602 340.676758,466.921814 340.677002,465.495026 
	C340.681732,437.334412 340.767365,409.173584 340.655243,381.013519 
	C340.641113,377.476135 341.801117,375.197845 344.539795,373.046051 
	C384.851410,341.372711 425.093903,309.611359 465.628784,277.644470 
z"/>
<path fill="#FDFDFE" opacity="1.000000" stroke="none" 
	d="
M608.418335,577.604370 
	C600.107788,566.790161 592.029541,556.248779 583.217407,544.749695 
	C587.202881,544.749695 590.233887,544.749695 593.264954,544.749695 
	C597.930176,544.749695 602.704895,545.393982 607.239197,544.623535 
	C618.844666,542.651550 626.417175,547.384644 632.944092,556.754395 
	C640.727722,567.928284 649.786560,578.213867 658.689148,589.381226 
	C667.945129,578.096741 677.590698,567.495361 685.840332,555.900757 
	C692.056030,547.164795 698.973572,543.081299 709.830627,544.535095 
	C717.364380,545.543945 725.132690,544.797791 732.796082,544.856506 
	C733.078003,544.858643 733.358215,545.081421 734.421692,545.535461 
	C715.788452,569.118958 697.297974,592.521729 678.894775,615.814087 
	C697.927185,640.364868 716.809692,664.722168 736.585815,690.232178 
	C722.816772,690.232178 710.722229,690.336304 698.634827,690.091675 
	C697.227722,690.063232 695.580078,688.330139 694.516357,687.007446 
	C683.354858,673.127258 672.290100,659.169250 661.196472,645.234497 
	C660.501404,644.361450 659.788208,643.502869 658.754089,642.233276 
	C647.651794,655.612854 636.432556,668.343445 626.190002,681.816589 
	C621.216248,688.359131 615.932068,691.033997 607.806824,690.401184 
	C598.739258,689.694946 589.574280,690.239136 578.964966,690.239136 
	C599.386719,665.128784 619.048340,640.953064 638.739014,616.741699 
	C628.593018,603.636353 618.621826,590.756836 608.418335,577.604370 
z"/>
<path fill="#FCFDFD" opacity="1.000000" stroke="none" 
	d="
M369.639954,656.408508 
	C373.555298,648.015686 372.403534,642.067261 364.770599,637.845215 
	C358.607391,634.436096 351.643219,632.414124 344.930420,630.075134 
	C336.783295,627.236450 328.344879,625.163940 320.357788,621.951233 
	C306.014282,616.181824 296.857086,605.717529 295.180298,589.996033 
	C293.323395,572.585938 300.875671,559.338379 314.971100,549.687073 
	C328.553711,540.386841 343.992584,539.900879 359.628174,541.327148 
	C373.004944,542.547424 385.152405,547.113831 395.627808,555.717834 
	C396.755127,556.643738 397.820923,557.644531 399.028931,558.710938 
	C393.353973,565.140137 387.887726,571.382568 382.359711,577.569702 
	C380.308807,579.865173 378.229980,580.077698 375.476227,578.159607 
	C368.624908,573.387390 361.386322,569.009583 352.801208,568.626343 
	C347.919525,568.408447 342.688232,568.641479 338.123749,570.181335 
	C327.453278,573.781189 325.075684,587.672791 334.358551,593.950134 
	C340.511230,598.110779 348.058105,600.354370 355.181213,602.894348 
	C362.196655,605.395935 369.597931,606.822876 376.594635,609.368103 
	C392.241516,615.059937 404.113068,624.636169 405.823120,642.455505 
	C407.680786,661.812927 398.692749,675.789307 382.283325,685.177734 
	C369.885834,692.270691 356.183380,693.577759 342.202179,692.753113 
	C324.857544,691.730225 309.067139,686.256653 295.027924,675.934021 
	C293.575317,674.865845 292.230591,673.651062 290.713837,672.404053 
	C296.542816,664.933411 302.243683,657.626953 308.118652,650.097412 
	C313.582397,653.129272 319.261047,656.209106 324.871094,659.409241 
	C334.378784,664.832703 344.724030,665.854248 355.312347,664.955322 
	C361.140930,664.460510 366.137268,661.888428 369.639954,656.408508 
z"/>
<path fill="#B3E3E3" opacity="1.000000" stroke="none" 
	d="
M467.501404,397.498932 
	C450.111176,414.532562 432.976166,431.322510 415.833740,448.104828 
	C415.001617,448.919464 414.120026,449.685913 413.234711,450.443542 
	C406.679230,456.053680 403.350403,456.284576 398.083008,451.509888 
	C392.368164,446.329590 391.101166,438.183838 395.787628,432.682678 
	C400.420441,427.244476 405.607849,422.267181 410.682251,417.218689 
	C439.249329,388.797638 467.873230,360.433716 496.436249,332.008606 
	C503.559875,324.919373 508.074585,324.995056 515.806458,332.691132 
	C530.676453,347.492126 545.531555,362.308197 560.397705,377.113068 
	C560.973022,377.686005 561.599487,378.207520 562.785950,379.281403 
	C562.785950,371.488037 562.785950,364.291443 562.785950,356.671753 
	C571.657898,356.671753 580.041260,356.671753 588.787659,356.671753 
	C588.872192,358.074738 589.027344,359.514160 589.035034,360.954376 
	C589.106689,374.453003 588.982178,387.956421 589.353821,401.446381 
	C589.426758,404.092072 590.765564,407.282501 592.593018,409.199005 
	C600.174500,417.149841 608.312317,424.567749 615.959839,432.458588 
	C621.522827,438.198608 621.262146,444.848633 615.837219,450.601746 
	C610.806580,455.936707 605.639221,456.628143 599.992981,451.952148 
	C594.487000,447.392334 589.385559,442.331024 584.236755,437.355164 
	C559.316162,413.271606 534.371887,389.211548 509.622650,364.952789 
	C506.055145,361.456024 504.206787,361.376343 500.606689,365.092499 
	C489.947571,376.095215 478.745117,386.571503 467.501404,397.498932 
z"/>
<path fill="#ABE0E0" opacity="1.000000" stroke="none" 
	d="
M680.003052,520.066895 
	C631.563232,520.293884 583.123352,520.718689 534.683594,520.700500 
	C465.101074,520.674377 395.518677,520.325439 325.421448,519.824707 
	C324.917450,519.360168 324.928192,519.185364 325.389099,519.024048 
	C350.566345,516.395874 375.021637,512.260071 398.584747,504.130035 
	C406.314636,501.462921 413.533264,497.313995 420.985687,493.842743 
	C462.978973,493.807281 504.972290,493.743439 546.965576,493.752319 
	C560.959290,493.755280 574.953003,493.944458 589.460327,494.456055 
	C592.460144,496.452240 594.772522,498.479034 597.465210,499.547302 
	C605.462891,502.720154 613.488586,505.924500 621.723633,508.376404 
	C640.799255,514.055969 660.235046,518.014282 680.180237,519.235596 
	C680.113342,519.702698 680.058228,519.884827 680.003052,520.066895 
z"/>
<path fill="#FCFDFD" opacity="1.000000" stroke="none" 
	d="
M610.851074,335.240662 
	C610.850647,333.287689 610.850647,331.802338 610.850647,329.223846 
	C616.547913,333.345398 621.585693,336.932739 626.563477,340.601593 
	C641.697876,351.756256 656.849670,362.888641 671.865173,374.201599 
	C673.326416,375.302490 674.739136,377.591400 674.744629,379.333405 
	C674.837036,408.660187 674.703674,437.987640 674.608276,467.314941 
	C674.606140,467.960022 674.462158,468.604645 674.344299,469.581543 
	C663.854980,469.581543 653.469910,469.581543 642.722717,469.581543 
	C642.722717,464.270996 642.726257,458.965729 642.722107,453.660431 
	C642.708069,435.664093 642.507629,417.664825 642.795105,399.673340 
	C642.874329,394.719635 641.079468,391.712585 637.204712,389.003448 
	C629.295654,383.473572 621.528259,377.722473 613.966187,371.729767 
	C612.346619,370.446228 611.033203,367.773285 610.970642,365.698456 
	C610.669556,355.709625 610.845154,345.706390 610.851074,335.240662 
z"/>
<path fill="#5A96A7" opacity="1.000000" stroke="none" 
	d="
M680.192078,518.950500 
	C660.235046,518.014282 640.799255,514.055969 621.723633,508.376404 
	C613.488586,505.924500 605.462891,502.720154 597.465210,499.547302 
	C594.772522,498.479034 592.460144,496.452240 589.916260,494.525574 
	C591.331787,494.019928 592.804993,493.705048 594.278137,493.705841 
	C659.242493,493.740845 724.206787,493.802002 789.171143,493.874603 
	C790.631470,493.876251 792.091736,494.046448 794.258118,494.182251 
	C794.258118,502.170929 794.404236,509.945007 794.065979,517.697937 
	C794.025452,518.625366 791.360901,520.169800 789.895691,520.189880 
	C775.905945,520.381409 761.912537,520.319397 747.920166,520.303894 
	C727.597900,520.281372 707.275635,520.237183 686.220581,519.883667 
	C683.722534,519.360229 681.957336,519.155334 680.192078,518.950500 
z"/>
<path fill="#5A95A6" opacity="1.000000" stroke="none" 
	d="
M420.617920,493.677643 
	C413.533264,497.313995 406.314636,501.462921 398.584747,504.130035 
	C375.021637,512.260071 350.566345,516.395874 325.052979,519.031189 
	C323.501251,519.398193 322.735809,519.771484 321.970367,520.144836 
	C321.531647,520.164429 321.092926,520.184082 320.089966,519.888062 
	C318.022125,519.737000 316.518585,519.901611 315.015015,520.066223 
	C284.532623,520.281982 254.049988,520.471985 223.568146,520.748901 
	C220.074478,520.780640 218.431686,519.792358 218.635117,515.906860 
	C218.965759,509.591156 218.802170,503.249603 219.146561,496.265503 
	C219.624344,495.057587 219.802765,494.503113 219.981171,493.948639 
	C228.010864,493.909485 236.040558,493.870331 244.849823,494.172607 
	C257.654602,494.672699 269.679596,494.855225 281.705261,494.949554 
	C282.784485,494.958038 283.868134,494.395966 284.949738,494.098877 
	C295.599640,494.024323 306.249451,493.921906 316.899506,493.880280 
	C351.349670,493.745697 385.799957,493.633423 420.617920,493.677643 
z"/>
<path fill="#FBFCFC" opacity="1.000000" stroke="none" 
	d="
M656.783813,230.104187 
	C662.779541,258.290375 681.952759,270.935760 708.658875,275.247467 
	C676.711975,279.635345 659.334351,297.953339 654.624390,329.293152 
	C650.907837,315.212494 647.308533,301.448364 636.368347,291.154327 
	C625.663452,281.081696 612.002991,277.900391 598.051819,274.822449 
	C629.232422,270.735809 649.418945,255.353577 655.035339,223.081406 
	C655.590942,225.288559 656.146606,227.495712 656.783813,230.104187 
z"/>
<path fill="#FAFCFC" opacity="1.000000" stroke="none" 
	d="
M320.440918,344.361206 
	C316.323730,349.335846 311.820587,353.701813 308.833893,358.933472 
	C305.949097,363.986603 304.627563,369.932159 302.304962,376.355103 
	C297.946411,350.787292 282.524200,337.877960 257.919128,334.464783 
	C283.361328,330.329071 299.313385,316.985260 302.808044,290.120972 
	C306.984863,315.460022 320.807587,330.987030 346.906067,334.241547 
	C337.424286,336.013306 328.311768,338.070282 320.440918,344.361206 
z"/>
<path fill="#B5E1E2" opacity="1.000000" stroke="none" 
	d="
M749.009521,444.806458 
	C752.667480,444.806458 756.325439,444.806458 759.516113,444.806458 
	C762.801575,450.639679 765.462891,456.317505 769.003601,461.380249 
	C772.468384,466.334290 776.829285,470.661621 780.349670,474.745361 
	C774.423035,476.058319 767.785095,474.043701 762.632507,468.637756 
	C757.805542,463.573486 753.755371,457.768890 748.735229,451.506592 
	C748.401855,461.402405 753.185425,468.004242 759.358398,474.046509 
	C749.655518,476.302460 746.976685,474.048126 733.609558,452.330170 
	C731.161011,461.448700 735.062195,467.992584 740.499268,474.375427 
	C722.391602,477.440826 721.283813,462.582336 715.758301,451.027557 
	C713.409973,460.101105 715.295593,467.092041 719.860962,473.815857 
	C714.850769,475.319916 710.858276,474.167145 708.619446,469.442902 
	C705.987671,463.889313 703.798523,458.125916 701.285034,452.138092 
	C698.307678,459.610077 699.193604,466.773590 702.708252,473.817169 
	C697.859680,475.143005 696.555115,474.666656 694.439941,470.527344 
	C690.822876,463.448822 690.650452,455.792023 691.174255,448.138550 
	C691.495056,443.450867 695.477661,445.331268 699.016296,444.930298 
	C716.279724,444.895233 732.644653,444.850861 749.009521,444.806458 
z"/>
<path fill="#F7F9FA" opacity="1.000000" stroke="none" 
	d="
M752.242432,760.887085 
	C752.209473,770.771484 752.209473,770.771484 743.031494,774.209717 
	C727.848633,779.897522 713.019531,775.735718 706.093933,763.843262 
	C699.018311,751.693237 701.985718,734.594360 712.708435,725.729370 
	C722.944336,717.266968 740.154602,718.500061 751.717224,728.508545 
	C749.245972,731.373230 746.772949,734.239929 745.190063,736.074829 
	C739.019348,734.671753 733.311707,732.199890 727.679565,732.361267 
	C718.633057,732.620361 714.290771,739.683289 714.802979,750.752197 
	C715.189453,759.102539 720.586792,764.526245 729.073792,764.957520 
	C730.715698,765.040894 732.403076,764.848816 734.027405,764.552795 
	C741.506165,763.190002 741.500854,763.160706 740.789368,755.018677 
	C737.483154,755.164246 734.137817,755.311523 730.461304,755.473389 
	C730.461304,751.977112 730.461304,748.932739 730.461304,745.525696 
	C737.725830,745.525696 744.805298,745.525696 752.244263,745.525696 
	C752.244263,750.469666 752.244263,755.438782 752.242432,760.887085 
z"/>
<path fill="#F9FBFB" opacity="1.000000" stroke="none" 
	d="
M728.645447,388.286011 
	C728.294617,389.430878 728.028564,390.215027 727.300415,392.361511 
	C723.507812,369.095825 712.079956,354.354004 688.212463,351.237244 
	C711.286743,347.796143 724.006226,334.312256 727.473694,311.481445 
	C731.626404,333.005157 742.185486,347.912628 765.775818,350.908997 
	C744.411255,354.398865 732.763306,367.439362 728.645447,388.286011 
z"/>
<path fill="#F7F9F9" opacity="1.000000" stroke="none" 
	d="
M677.780090,724.439270 
	C677.779907,741.668518 677.779907,758.439514 677.779907,775.171997 
	C671.429138,776.761230 667.108948,775.754944 663.516541,770.127502 
	C657.387085,760.526001 650.398621,751.472839 643.151733,741.321899 
	C643.151733,753.179077 643.151733,764.031738 643.151733,775.229675 
	C639.656006,775.229675 636.559753,775.229675 633.078979,775.229675 
	C633.078979,757.480530 633.078979,739.611023 633.078979,721.715820 
	C639.081970,719.972351 643.223267,721.768738 646.778503,727.164795 
	C653.058899,736.696777 660.066772,745.749329 667.512512,756.027466 
	C667.512512,743.916199 667.512512,733.100159 667.512512,721.409912 
	C671.101562,723.240051 675.316772,718.473938 677.780090,724.439270 
z"/>
<path fill="#F8FAFA" opacity="1.000000" stroke="none" 
	d="
M525.859131,757.005127 
	C525.859497,763.297607 525.859497,769.091614 525.859497,775.147034 
	C522.348022,775.147034 519.257507,775.147034 515.803894,775.147034 
	C515.803894,757.257446 515.803894,739.520264 515.803894,721.754883 
	C521.872192,720.320251 526.410095,721.124268 530.122864,727.078979 
	C536.274597,736.945374 543.405090,746.201538 550.781494,756.646973 
	C550.781494,744.480469 550.781494,733.214905 550.781494,721.782959 
	C554.532288,721.782959 557.625366,721.782959 560.884949,721.782959 
	C560.884949,739.666504 560.884949,757.295532 560.884949,774.950928 
	C554.576172,776.728333 550.025940,775.523926 546.230774,769.474854 
	C540.250916,759.943848 533.286743,751.030457 525.858765,740.621887 
	C525.858765,746.784668 525.858765,751.645630 525.859131,757.005127 
z"/>
<path fill="#F9FBFB" opacity="1.000000" stroke="none" 
	d="
M310.904663,448.907593 
	C291.572571,453.680634 284.343658,468.123383 280.105164,485.637451 
	C277.310242,464.447693 266.508179,450.928741 244.486099,447.262695 
	C264.412567,444.000275 276.951385,433.234009 280.350647,412.487030 
	C284.367004,432.683075 296.385284,444.079834 317.712372,447.131531 
	C314.559631,447.974030 312.926361,448.410461 310.904663,448.907593 
z"/>
<path fill="#F9FAFB" opacity="1.000000" stroke="none" 
	d="
M457.103424,726.021240 
	C457.883087,721.815674 460.156647,720.367920 463.906891,721.139832 
	C467.632202,721.906738 472.309387,718.886719 474.463898,725.274719 
	C480.030762,741.780029 486.235779,758.070190 492.527130,775.385193 
	C488.724518,775.385193 485.471100,775.681641 482.325714,775.228455 
	C481.185822,775.064148 479.892426,773.268982 479.370941,771.942078 
	C475.677124,762.543335 475.735229,762.520508 465.701447,762.508606 
	C455.871735,762.496948 455.738434,762.449036 452.412506,771.701782 
	C451.403595,774.508545 450.153168,775.804810 447.105927,775.459412 
	C444.843140,775.202942 442.527954,775.408997 439.426178,775.408997 
	C445.417084,758.698792 451.206085,742.551758 457.103424,726.021240 
M467.741028,737.926880 
	C467.139008,736.458740 466.536957,734.990601 465.665588,732.865662 
	C463.242249,739.902588 461.073334,746.200684 458.848053,752.662476 
	C463.512543,752.662476 467.796997,752.662476 472.426147,752.662476 
	C470.845520,747.720032 469.396973,743.190674 467.741028,737.926880 
z"/>
<path fill="#F9FAFB" opacity="1.000000" stroke="none" 
	d="
M288.212524,776.799683 
	C275.665192,775.543701 266.101898,770.157166 262.950256,757.936035 
	C259.294220,743.758850 262.456543,732.149170 273.975983,724.521118 
	C284.632080,717.464783 298.968842,718.923401 309.204834,728.030029 
	C306.933838,730.977417 304.643768,733.949524 303.152557,735.884888 
	C296.987274,734.590271 291.502472,732.657532 285.998047,732.599915 
	C283.084045,732.569397 279.512482,735.239990 277.329895,737.671509 
	C272.434448,743.125427 272.794281,754.016724 277.371796,759.473083 
	C283.107452,766.309875 291.271851,766.511292 303.609589,759.855835 
	C305.492462,762.818665 307.397247,765.815979 309.332520,768.861267 
	C303.374512,774.708862 296.262329,776.405212 288.212524,776.799683 
z"/>
<path fill="#F5F7F8" opacity="1.000000" stroke="none" 
	d="
M413.925964,732.075500 
	C408.478455,732.075745 403.519623,732.075745 398.305084,732.075745 
	C398.305084,735.672058 398.305084,738.925049 398.305084,742.604614 
	C404.745087,742.604614 411.159698,742.604614 417.800598,742.604614 
	C417.800598,745.957336 417.800598,748.893372 417.800598,752.429504 
	C411.460724,752.429504 405.073822,752.429504 398.428101,752.429504 
	C398.428101,756.760193 398.428101,760.501648 398.428101,764.776855 
	C405.722473,764.776855 412.945190,764.776855 420.325775,764.776855 
	C420.325775,768.537292 420.325775,771.762085 420.325775,775.259766 
	C409.218750,775.259766 398.474426,775.259766 387.430420,775.259766 
	C387.430420,757.354980 387.430420,739.641418 387.430420,721.551392 
	C398.216949,721.551392 408.902161,721.551392 419.820984,721.551392 
	C419.820984,725.061523 419.820984,728.309448 419.820984,732.075256 
	C417.964264,732.075256 416.189423,732.075256 413.925964,732.075500 
z"/>
<path fill="#F5F7F8" opacity="1.000000" stroke="none" 
	d="
M352.903046,764.566162 
	C356.342560,764.565063 359.297638,764.565063 362.441101,764.565063 
	C362.441101,768.293640 362.441101,771.414673 362.441101,774.901062 
	C352.368561,774.901062 342.312469,774.901062 332.127625,774.901062 
	C332.127625,757.220337 332.127625,739.594727 332.127625,721.672729 
	C335.534515,721.672729 338.774261,721.672729 342.580505,721.672729 
	C342.580505,735.845703 342.580505,749.923889 342.580505,764.567322 
	C346.217285,764.567322 349.317932,764.567322 352.903046,764.566162 
z"/>
<path fill="#B0DDE0" opacity="1.000000" stroke="none" 
	d="
M702.990601,438.164246 
	C697.692017,438.164246 692.393372,438.164246 687.136536,438.164246 
	C686.669006,432.075409 690.139343,428.235718 696.593567,427.830414 
	C702.061829,427.487030 707.564087,427.658081 713.051392,427.651886 
	C727.188416,427.635956 741.326416,427.549835 755.462097,427.686584 
	C763.579102,427.765106 767.316528,430.937408 767.783752,438.041718 
	C760.484436,438.041718 753.210876,438.041718 745.009644,438.034912 
	C730.384827,438.073486 716.687683,438.118866 702.990601,438.164246 
z"/>
<path fill="#F5F7F8" opacity="1.000000" stroke="none" 
	d="
M591.253418,723.507690 
	C594.638550,722.244019 598.016907,721.434326 601.896362,720.504517 
	C601.896362,739.491516 601.896362,757.234253 601.896362,775.154785 
	C598.296143,775.154785 594.869629,775.154785 591.246582,775.154785 
	C591.246582,757.901245 591.246582,740.931396 591.253418,723.507690 
z"/>
<path fill="#F7F9F9" opacity="1.000000" stroke="none" 
	d="
M368.313599,295.919983 
	C364.870422,287.161987 358.912476,282.022186 349.434235,280.145874 
	C360.374817,277.096252 368.140411,270.975800 370.351898,259.025970 
	C372.530121,270.604950 379.154327,277.541473 391.092438,280.476074 
	C378.458069,282.902008 373.595978,291.567627 370.401703,302.962769 
	C369.552521,299.998505 369.018158,298.133331 368.313599,295.919983 
z"/>
<path fill="#F5F7F8" opacity="1.000000" stroke="none" 
	d="
M528.203369,426.711090 
	C528.204773,428.784515 528.204773,430.404694 528.204773,432.301880 
	C522.054871,432.301880 516.344238,432.301880 510.445526,432.301880 
	C510.445526,426.860474 510.445526,421.644928 510.445526,416.167267 
	C516.418640,416.167267 522.140076,416.167267 528.201965,416.167267 
	C528.201965,419.648834 528.201965,422.953339 528.203369,426.711090 
z"/>
<path fill="#1A2B3D" opacity="1.000000" stroke="none" 
	d="
M702.989990,438.530029 
	C716.687683,438.118866 730.384827,438.073486 744.546021,438.102753 
	C746.278625,440.170563 747.547119,442.163757 748.912598,444.481689 
	C732.644653,444.850861 716.279724,444.895233 699.451538,444.859070 
	C700.321899,442.817627 701.655640,440.856720 702.989990,438.530029 
z"/>
<path fill="#F8FAFA" opacity="1.000000" stroke="none" 
	d="
M510.300385,445.282288 
	C511.063324,443.859100 511.790588,442.121399 512.601746,442.081329 
	C517.712036,441.828888 522.841064,441.953461 528.164429,441.953461 
	C528.164429,447.425201 528.164429,452.528503 528.164429,457.852905 
	C522.221741,457.852905 516.500122,457.852905 510.303497,457.852905 
	C510.303497,453.657074 510.303497,449.704895 510.300385,445.282288 
z"/>
<path fill="#FBFCFC" opacity="1.000000" stroke="none" 
	d="
M491.998810,415.994995 
	C495.120850,415.994690 497.755798,415.994690 500.670197,415.994690 
	C500.670197,421.470825 500.670197,426.690186 500.670197,432.172302 
	C495.176239,432.172302 489.776917,432.172302 484.067688,432.172302 
	C484.067688,426.907806 484.067688,421.695770 484.067688,415.995300 
	C486.612946,415.995300 489.062347,415.995300 491.998810,415.994995 
z"/>
<path fill="#FBFCFC" opacity="1.000000" stroke="none" 
	d="
M492.960876,457.999359 
	C489.693848,457.998993 486.912476,457.998993 483.930725,457.998993 
	C483.930725,452.475098 483.930725,447.426422 483.930725,442.144348 
	C489.533569,442.144348 494.942932,442.144348 500.645325,442.144348 
	C500.645325,447.213501 500.645325,452.266663 500.645325,457.999725 
	C498.273773,457.999725 495.860168,457.999725 492.960876,457.999359 
z"/>
<path fill="#6D919A" opacity="1.000000" stroke="none" 
	d="
M284.490112,494.029663 
	C283.868134,494.395966 282.784485,494.958038 281.705261,494.949554 
	C269.679596,494.855225 257.654602,494.672699 245.314194,494.242920 
	C258.009491,493.968018 271.019989,493.964233 284.490112,494.029663 
z"/>
<path fill="#6D919A" opacity="1.000000" stroke="none" 
	d="
M680.180237,519.235596 
	C681.957336,519.155334 683.722534,519.360229 685.755249,519.835754 
	C684.219177,520.195374 682.415649,520.284302 680.307617,520.220093 
	C680.058228,519.884827 680.113342,519.702698 680.180237,519.235596 
z"/>
<path fill="#6D919A" opacity="1.000000" stroke="none" 
	d="
M315.330994,520.145874 
	C316.518585,519.901611 318.022125,519.737000 319.764862,519.830933 
	C318.551666,520.134827 317.099335,520.180176 315.330994,520.145874 
z"/>
<path fill="#6D919A" opacity="1.000000" stroke="none" 
	d="
M322.210175,520.261475 
	C322.735809,519.771484 323.501251,519.398193 324.602844,519.017700 
	C324.928192,519.185364 324.917450,519.360168 324.953735,519.793579 
	C324.150543,520.160706 323.300262,520.269409 322.210175,520.261475 
z"/>
<path fill="#6D919A" opacity="1.000000" stroke="none" 
	d="
M219.729095,493.946869 
	C219.802765,494.503113 219.624344,495.057587 219.217102,495.800385 
	C219.151199,495.307526 219.314102,494.626312 219.729095,493.946869 
z"/>
<path fill="#152135" opacity="1.000000" stroke="none" 
	d="
M469.130402,591.002136 
	C469.130371,585.377991 469.130371,580.253174 469.130371,574.600037 
	C478.850861,574.600037 488.264313,574.589111 497.677704,574.604248 
	C503.163757,574.613098 508.675110,574.341309 514.129822,574.770935 
	C522.369263,575.419800 529.260315,578.730835 532.837219,586.737915 
	C536.116516,594.078674 535.575500,601.279114 531.040588,607.983337 
	C527.393433,613.375244 521.750610,615.731018 515.662781,615.872559 
	C500.390015,616.227356 485.103455,615.989746 469.130432,615.989746 
	C469.130432,607.647766 469.130432,599.574646 469.130402,591.002136 
z"/>
<path fill="#152135" opacity="1.000000" stroke="none" 
	d="
M467.844727,738.294067 
	C469.396973,743.190674 470.845520,747.720032 472.426147,752.662476 
	C467.796997,752.662476 463.512543,752.662476 458.848053,752.662476 
	C461.073334,746.200684 463.242249,739.902588 465.665588,732.865662 
	C466.536957,734.990601 467.139008,736.458740 467.844727,738.294067 
z"/>
</svg>